<?xml version="1.0" encoding="UTF-8" standalone="no"?>
<!DOCTYPE svg PUBLIC "-//W3C//DTD SVG 1.1//EN" "http://www.w3.org/Graphics/SVG/1.1/DTD/svg11.dtd">
<svg width="100%" height="100%" viewBox="0 0 1016 220" version="1.1" xmlns="http://www.w3.org/2000/svg" xmlns:xlink="http://www.w3.org/1999/xlink" xml:space="preserve" xmlns:serif="http://www.serif.com/" style="fill-rule:evenodd;clip-rule:evenodd;stroke-linejoin:round;stroke-miterlimit:2;">
    <g transform="matrix(1,0,0,1,-533.441429,-410.339365)">
        <g transform="matrix(0,-1,1,0,0,1080)">
            <g transform="matrix(0.627357,0,0,0.627357,179.907716,277.397117)">
                <g transform="matrix(0,1,-1,0,1086,-0)">
                    <path d="M509.148,305.339L509.148,554L408.132,378L509.148,305.339Z" style="fill:url(#_Linear1);"/>
                </g>
                <g transform="matrix(0,1,-1,0,1080,-0)">
                    <path d="M408.132,372L509.148,548L509.148,649.523L408.132,576L408.132,372Z" style="fill:url(#_Linear2);"/>
                </g>
                <g transform="matrix(0,1,-1,0,1080,-0)">
                    <path d="M533.441,398L613.904,304.469L599.123,476.287L533.441,398Z" style="fill:rgb(239,93,36);"/>
                </g>
                <g transform="matrix(0,1,-1,0,1080,-0)">
                    <path d="M599.123,476.287L533.441,548L613.904,646.869L599.123,476.287Z" style="fill:url(#_Linear3);"/>
                </g>
                <g transform="matrix(0,1,-1,0,1080,-0)">
                    <path d="M736.13,646.869L613.904,646.869L599.123,476.287" style="fill:rgb(237,94,35);"/>
                </g>
                <g transform="matrix(0,1,-1,0,1080,-0)">
                    <path d="M613.904,304.469L736.13,304.469L599.123,476.287" style="fill:url(#_Linear4);"/>
                </g>
            </g>
        </g>
        <g transform="matrix(0,-1,1,0,0,1080)">
            <g transform="matrix(0,1,-1,0,788.12,9)">
                <g transform="matrix(144,0,0,144,760,284.12)">
                    <path d="M0.08,-0L0.08,-0.709L0.192,-0.709L0.192,-0.344L0.526,-0.71L0.65,-0.71L0.37,-0.396L0.666,-0L0.539,-0L0.299,-0.325L0.192,-0.214L0.192,-0L0.08,-0Z" style="fill:rgb(68,68,68);fill-rule:nonzero;"/>
                </g>
                <g transform="matrix(144,0,0,144,849.164126,284.12)">
                    <path d="M0.375,0.005C0.324,0.005 0.278,-0.005 0.236,-0.025C0.195,-0.045 0.159,-0.072 0.129,-0.106C0.099,-0.141 0.076,-0.179 0.06,-0.223C0.043,-0.266 0.035,-0.31 0.035,-0.355C0.035,-0.403 0.044,-0.448 0.061,-0.491C0.078,-0.534 0.102,-0.572 0.133,-0.606C0.164,-0.639 0.2,-0.666 0.241,-0.685C0.283,-0.705 0.328,-0.715 0.377,-0.715C0.428,-0.715 0.474,-0.704 0.516,-0.684C0.557,-0.663 0.592,-0.636 0.622,-0.601C0.652,-0.566 0.675,-0.528 0.691,-0.485C0.707,-0.442 0.716,-0.398 0.716,-0.354C0.716,-0.306 0.707,-0.261 0.69,-0.218C0.673,-0.175 0.65,-0.137 0.619,-0.104C0.588,-0.07 0.552,-0.043 0.511,-0.024C0.469,-0.004 0.424,0.005 0.375,0.005ZM0.149,-0.355C0.149,-0.321 0.155,-0.289 0.165,-0.258C0.176,-0.227 0.191,-0.199 0.211,-0.175C0.23,-0.15 0.254,-0.131 0.282,-0.117C0.31,-0.103 0.341,-0.096 0.376,-0.096C0.412,-0.096 0.444,-0.103 0.472,-0.118C0.5,-0.133 0.523,-0.153 0.543,-0.177C0.562,-0.202 0.576,-0.23 0.586,-0.261C0.596,-0.292 0.601,-0.324 0.601,-0.355C0.601,-0.389 0.596,-0.421 0.586,-0.452C0.575,-0.483 0.56,-0.51 0.54,-0.535C0.52,-0.559 0.496,-0.578 0.469,-0.592C0.441,-0.606 0.41,-0.613 0.376,-0.613C0.34,-0.613 0.308,-0.606 0.28,-0.591C0.252,-0.577 0.229,-0.557 0.209,-0.532C0.19,-0.508 0.175,-0.48 0.165,-0.449C0.155,-0.418 0.149,-0.387 0.149,-0.355Z" style="fill:rgb(68,68,68);fill-rule:nonzero;"/>
                </g>
                <g transform="matrix(144,0,0,144,957.404077,284.12)">
                    <path d="M0.192,-0.502L0.192,-0L0.08,-0L0.08,-0.71L0.172,-0.71L0.574,-0.197L0.574,-0.709L0.687,-0.709L0.687,-0L0.589,-0L0.192,-0.502Z" style="fill:rgb(68,68,68);fill-rule:nonzero;"/>
                </g>
                <g transform="matrix(144,0,0,144,1067.787182,284.12)">
                    <path d="M0.601,-0.611L0.365,-0.611L0.365,-0L0.252,-0L0.252,-0.611L0.015,-0.611L0.015,-0.71L0.601,-0.71L0.601,-0.611Z" style="fill:rgb(68,68,68);fill-rule:nonzero;"/>
                </g>
                <g transform="matrix(144,0,0,144,1156.513742,284.12)">
                    <path d="M0.08,-0L0.08,-0.71L0.389,-0.71C0.421,-0.71 0.45,-0.703 0.477,-0.69C0.503,-0.677 0.527,-0.659 0.546,-0.637C0.566,-0.615 0.582,-0.59 0.592,-0.563C0.603,-0.535 0.609,-0.507 0.609,-0.479C0.609,-0.447 0.603,-0.417 0.592,-0.389C0.58,-0.36 0.564,-0.336 0.543,-0.315C0.522,-0.294 0.498,-0.279 0.47,-0.27L0.637,-0L0.511,-0L0.357,-0.247L0.192,-0.247L0.192,-0L0.08,-0ZM0.192,-0.346L0.388,-0.346C0.409,-0.346 0.427,-0.352 0.443,-0.364C0.459,-0.376 0.472,-0.393 0.481,-0.413C0.49,-0.433 0.495,-0.455 0.495,-0.479C0.495,-0.503 0.489,-0.526 0.479,-0.545C0.468,-0.565 0.454,-0.581 0.437,-0.593C0.42,-0.605 0.402,-0.611 0.382,-0.611L0.192,-0.611L0.192,-0.346Z" style="fill:rgb(68,68,68);fill-rule:nonzero;"/>
                </g>
                <g transform="matrix(144,0,0,144,1251.392749,284.12)">
                    <path d="M0.375,0.005C0.324,0.005 0.278,-0.005 0.236,-0.025C0.195,-0.045 0.159,-0.072 0.129,-0.106C0.099,-0.141 0.076,-0.179 0.06,-0.223C0.043,-0.266 0.035,-0.31 0.035,-0.355C0.035,-0.403 0.044,-0.448 0.061,-0.491C0.078,-0.534 0.102,-0.572 0.133,-0.606C0.164,-0.639 0.2,-0.666 0.241,-0.685C0.283,-0.705 0.328,-0.715 0.377,-0.715C0.428,-0.715 0.474,-0.704 0.516,-0.684C0.557,-0.663 0.592,-0.636 0.622,-0.601C0.652,-0.566 0.675,-0.528 0.691,-0.485C0.707,-0.442 0.716,-0.398 0.716,-0.354C0.716,-0.306 0.707,-0.261 0.69,-0.218C0.673,-0.175 0.65,-0.137 0.619,-0.104C0.588,-0.07 0.552,-0.043 0.511,-0.024C0.469,-0.004 0.424,0.005 0.375,0.005ZM0.149,-0.355C0.149,-0.321 0.155,-0.289 0.165,-0.258C0.176,-0.227 0.191,-0.199 0.211,-0.175C0.23,-0.15 0.254,-0.131 0.282,-0.117C0.31,-0.103 0.341,-0.096 0.376,-0.096C0.412,-0.096 0.444,-0.103 0.472,-0.118C0.5,-0.133 0.523,-0.153 0.543,-0.177C0.562,-0.202 0.576,-0.23 0.586,-0.261C0.596,-0.292 0.601,-0.324 0.601,-0.355C0.601,-0.389 0.596,-0.421 0.586,-0.452C0.575,-0.483 0.56,-0.51 0.54,-0.535C0.52,-0.559 0.496,-0.578 0.469,-0.592C0.441,-0.606 0.41,-0.613 0.376,-0.613C0.34,-0.613 0.308,-0.606 0.28,-0.591C0.252,-0.577 0.229,-0.557 0.209,-0.532C0.19,-0.508 0.175,-0.48 0.165,-0.449C0.155,-0.418 0.149,-0.387 0.149,-0.355Z" style="fill:rgb(68,68,68);fill-rule:nonzero;"/>
                </g>
                <g transform="matrix(144,0,0,144,1359.6327,284.12)">
                    <path d="M0.08,-0L0.08,-0.71L0.192,-0.71L0.192,-0.099L0.573,-0.099L0.573,-0L0.08,-0Z" style="fill:rgb(68,68,68);fill-rule:nonzero;"/>
                </g>
                <g transform="matrix(144,0,0,144,1443.759756,284.12)">
                    <path d="M0.285,-0.71L0.391,-0.71L0.667,-0L0.549,-0L0.474,-0.193L0.2,-0.193L0.126,-0L0.007,-0L0.285,-0.71ZM0.452,-0.276L0.338,-0.587L0.22,-0.276L0.452,-0.276Z" style="fill:rgb(68,68,68);fill-rule:nonzero;"/>
                </g>
                <g transform="matrix(144,0,0,144,1540.937196,284.12)">
                </g>
            </g>
        </g>
    </g>
    <defs>
        <linearGradient id="_Linear1" x1="0" y1="0" x2="1" y2="0" gradientUnits="userSpaceOnUse" gradientTransform="matrix(-2,301,-740.94223,-4.923204,479,329)"><stop offset="0" style="stop-color:rgb(245,130,34);stop-opacity:1"/><stop offset="1" style="stop-color:rgb(238,97,34);stop-opacity:1"/></linearGradient>
        <linearGradient id="_Linear2" x1="0" y1="0" x2="1" y2="0" gradientUnits="userSpaceOnUse" gradientTransform="matrix(0,-342.400374,342.400374,0,416,646.869227)"><stop offset="0" style="stop-color:rgb(237,94,35);stop-opacity:1"/><stop offset="0.17" style="stop-color:rgb(237,94,35);stop-opacity:1"/><stop offset="0.43" style="stop-color:rgb(238,98,35);stop-opacity:1"/><stop offset="0.67" style="stop-color:rgb(240,107,35);stop-opacity:1"/><stop offset="0.78" style="stop-color:rgb(242,114,35);stop-opacity:1"/><stop offset="0.89" style="stop-color:rgb(244,123,34);stop-opacity:1"/><stop offset="1" style="stop-color:rgb(247,133,34);stop-opacity:1"/></linearGradient>
        <linearGradient id="_Linear3" x1="0" y1="0" x2="1" y2="0" gradientUnits="userSpaceOnUse" gradientTransform="matrix(0,-128,128,0,573.672667,630)"><stop offset="0" style="stop-color:rgb(245,130,34);stop-opacity:1"/><stop offset="0.47" style="stop-color:rgb(244,127,34);stop-opacity:1"/><stop offset="0.7" style="stop-color:rgb(243,118,35);stop-opacity:1"/><stop offset="0.8" style="stop-color:rgb(242,112,35);stop-opacity:1"/><stop offset="0.9" style="stop-color:rgb(241,104,36);stop-opacity:1"/><stop offset="1" style="stop-color:rgb(239,94,36);stop-opacity:1"/></linearGradient>
        <linearGradient id="_Linear4" x1="0" y1="0" x2="1" y2="0" gradientUnits="userSpaceOnUse" gradientTransform="matrix(0,130,-130,0,644,329)"><stop offset="0" style="stop-color:rgb(245,130,34);stop-opacity:1"/><stop offset="0.34" style="stop-color:rgb(245,129,34);stop-opacity:1"/><stop offset="0.55" style="stop-color:rgb(245,126,34);stop-opacity:1"/><stop offset="0.61" style="stop-color:rgb(244,125,35);stop-opacity:1"/><stop offset="0.67" style="stop-color:rgb(244,122,35);stop-opacity:1"/><stop offset="1" style="stop-color:rgb(242,111,35);stop-opacity:1"/></linearGradient>
    </defs>
</svg>
